<svg xmlns="http://www.w3.org/2000/svg" version="1.1" xmlns:xlink="http://www.w3.org/1999/xlink" width="1500" height="1500" viewBox="0 0 1500 1500"><rect width="1500" height="1500" x="0" y="0" id="background" stroke="transparent" fill="#0b1015"></rect><svg xml:space="preserve" width="1000" height="1000" data-version="2" data-id="lg_1oTqVHgorwRO1oysEn" viewBox="0 0 373 570" x="250" y="250"><rect width="100%" height="100%" fill="transparent"></rect><path fill="#760310" stroke="#fabaff" stroke-width="1.19" d="M3.607 445.125H366.84"></path><g transform="translate(187.64 413.63)"><filter id="a" width="188.52%" height="277.22%" x="-44.26%" y="-88.61%"><feGaussianBlur in="SourceAlpha" stdDeviation="5"></feGaussianBlur><feOffset dx="2" dy="2" result="oBlur"></feOffset><feFlood flood-color="#FFF" flood-opacity="0"></feFlood><feComposite in2="oBlur" operator="in"></feComposite><feMerge><feMergeNode></feMergeNode><feMergeNode in="SourceGraphic"></feMergeNode></feMerge></filter><g filter="url(#a)"><path fill="#fabaff" d="M-24.7 7.575h10.74v-1.7h-8.18q0-.93.89-1.95.88-1.03 2.94-2.35 1.96-1.36 3.16-2.78 1.2-1.42 1.2-3.47 0-1.69-1.08-2.88t-4.2-1.19q-3.14 0-4.32 1.52-1.18 1.53-1.18 4.19h2.43q0-2.33.79-3.17.8-.84 2.28-.84 1.38 0 2.11.53t.73 1.86q0 1.5-.8 2.53-.79 1.04-2.95 2.39-2.37 1.42-3.47 2.85-1.09 1.44-1.09 3Z"></path><rect width="10.78" height="16.32" x="-5.39" y="-8.16" fill="none" rx="0" ry="0" transform="translate(-18.84 -.09)"></rect><path fill="#fabaff" d="M-6.81 7.745q2.72 0 4.01-1.04 1.3-1.04 1.3-3.21v-8q0-2.16-1.3-3.2-1.31-1.04-4.01-1.04-2.71 0-4.01 1.03-1.3 1.03-1.3 3.21v8q0 2.17 1.31 3.21 1.3 1.04 4 1.04m0-1.71q-1.52 0-2.2-.65-.68-.65-.68-2.01v-7.76q0-1.36.67-2.01.67-.65 2.21-.65 1.52 0 2.19.66.68.65.68 2v7.76q0 1.34-.68 2-.67.66-2.19.66"></path><rect width="10.62" height="16.49" x="-5.31" y="-8.24" fill="none" rx="0" ry="0" transform="translate(-6.31)"></rect><path fill="#fabaff" d="M.45 7.575h10.74v-1.7H3.01q0-.93.89-1.95.89-1.03 2.94-2.35 1.97-1.36 3.17-2.78 1.2-1.42 1.2-3.47 0-1.69-1.08-2.88t-4.2-1.19q-3.15 0-4.33 1.52Q.42-5.695.42-3.035h2.43q0-2.33.8-3.17.79-.84 2.28-.84 1.38 0 2.1.53.73.53.73 1.86 0 1.5-.79 2.53-.8 1.04-2.96 2.39-2.37 1.42-3.46 2.85-1.1 1.44-1.1 3Z"></path><rect width="10.79" height="16.32" x="-5.39" y="-8.16" fill="none" rx="0" ry="0" transform="translate(6.32 -.09)"></rect><path fill="#fabaff" d="M18.19 7.715q3.1 0 4.32-1.38 1.22-1.39 1.22-4.5 0-2.84-1.04-4.09t-3.31-1.25q-2.14 0-3.7 1.03-1.57 1.03-1.69 2.95l1.4.04q.03-1.12.88-1.8.85-.68 2.22-.68 1.31 0 2.04.73.73.72.73 3.11 0 2.63-.76 3.41-.76.79-2.2.79-1.45 0-2.17-.72t-.74-2.63h-2.42q0 2.31 1.16 3.65 1.17 1.34 4.06 1.34m-5.22-7.2h2.42v-7.45h8v-1.69H12.97Z"></path><rect width="10.76" height="16.34" x="-5.38" y="-8.17" fill="none" rx="0" ry="0" transform="translate(18.85 .04)"></rect></g></g><path fill="#760310" stroke="#fabaff" stroke-width="1.19" d="M5.26 524.033h364.133"></path><path fill="#fabaff" d="m66.01 467.26 1.21-.05q1.2-.06 3.15-.14 1.96-.09 4.26-.16 2.3-.08 4.53-.13 2.24-.05 3.93-.05 6.38 0 10.09.97 3.71.98 5.3 2.77 1.59 1.8 1.59 4.27 0 2.36-1.24 3.96-1.23 1.6-3.77 2.76 1.78.6 3.42 1.72 1.63 1.12 2.68 3.11 1.05 1.98 1.05 5.25 0 3.01-1.23 4.96-1.24 1.96-3.3 3.09-2.06 1.12-4.6 1.65-2.53.53-5.15.68-2.62.15-4.94.15-.76 0-2.46-.05-1.71-.04-3.87-.1-2.16-.07-4.31-.15-2.15-.09-3.86-.17-1.7-.07-2.48-.11Zm13.43 15.71q1.83-.71 3.51-1.52 1.69-.8 2.76-1.86 1.08-1.05 1.08-2.49 0-.94-.72-1.39-.72-.46-1.45-.46t-1.61.32q-.88.31-1.68.72-.79.4-1.32.73-.53.32-.57.36Zm8.49 5.26q0-.99-.62-1.4-.61-.4-1.51-.4-.97 0-2.17.49t-2.32 1.12q-1.12.62-1.87.99v5.41l1.12-.43q2.23-.84 3.89-1.58 1.65-.74 2.56-1.72.92-.98.92-2.48"></path><rect width="36.2" height="35.34" x="-18.1" y="-17.67" fill="none" rx="0" ry="0" transform="translate(84.61 484.9)"></rect><path fill="#fabaff" d="M125.72 484.94q-1.33 0-2.77.69t-2.42 1.66q-.98.96-.98 1.82v12.46h-12.93v-26.7h12.93v2.86q1.1-1.66 2.72-2.65t3.45-1.18Z"></path><rect width="19.1" height="27.67" x="-9.55" y="-13.84" fill="none" rx="0" ry="0" transform="translate(116.67 488.24)"></rect><path fill="#fabaff" d="M143.14 502.37q-2.88 0-5.61-1-2.72-1-4.9-2.88-2.19-1.88-3.46-4.51-1.28-2.63-1.28-5.88 0-3.2 1.2-5.82t3.31-4.5q2.11-1.88 4.87-2.9 2.76-1.02 5.87-1.02 4.38 0 7.93 1.73 3.54 1.73 5.62 4.94 2.07 3.21 2.07 7.66 0 3.26-1.27 5.88-1.26 2.63-3.46 4.47-2.19 1.85-4.99 2.84-2.8.99-5.9.99m-1.35-8.68q.94 0 2.1-.89 1.16-.9 2.24-2.28 1.07-1.39 1.77-2.91.7-1.53.7-2.8 0-.96-.51-1.76-.5-.79-1.73-.79-1.11 0-2.36.85-1.24.85-2.33 2.21-1.08 1.36-1.76 2.9-.68 1.54-.68 2.93 0 .95.56 1.74.56.8 2 .8"></path><rect width="30.87" height="28.51" x="-15.44" y="-14.26" fill="none" rx="0" ry="0" transform="translate(143.82 488.62)"></rect><path fill="#fabaff" d="M201.75 500.56q-4.57 1.85-9.9 1.85-3.66 0-7.08-1.12-3.43-1.11-6.15-3.26-2.71-2.15-4.32-5.29-1.6-3.13-1.6-7.17 0-4.28 1.52-7.81 1.51-3.54 4.31-6.1 2.79-2.57 6.61-3.97 3.83-1.39 8.47-1.39.86 0 2.18.08 1.32.09 2.74.31 1.42.23 2.56.66v11.08q-1.42-.53-2.91-.53-2.21 0-4.08 1.08-1.87 1.09-2.98 2.91-1.12 1.83-1.12 4.06 0 2.22.86 3.46.86 1.25 2.53 1.25.67 0 1.59-.22.93-.21 2.53-1.07 1.6-.86 4.24-2.79Z"></path><rect width="29.05" height="36.11" x="-14.53" y="-18.05" fill="none" rx="0" ry="0" transform="translate(187.72 484.86)"></rect><path fill="#fabaff" d="M221.02 502.37q-2.88 0-5.6-1-2.73-1-4.91-2.88t-3.46-4.51q-1.28-2.63-1.28-5.88 0-3.2 1.2-5.82 1.21-2.62 3.31-4.5 2.11-1.88 4.87-2.9 2.76-1.02 5.87-1.02 4.39 0 7.93 1.73 3.55 1.73 5.62 4.94 2.07 3.21 2.07 7.66 0 3.26-1.27 5.88-1.26 2.63-3.45 4.47-2.2 1.85-5 2.84-2.8.99-5.9.99m-1.35-8.68q.94 0 2.1-.89 1.16-.9 2.24-2.28 1.07-1.39 1.77-2.91.7-1.53.7-2.8 0-.96-.51-1.76-.5-.79-1.72-.79-1.12 0-2.37.85-1.24.85-2.33 2.21-1.08 1.36-1.76 2.9-.68 1.54-.68 2.93 0 .95.56 1.74.56.8 2 .8"></path><rect width="30.87" height="28.51" x="-15.44" y="-14.26" fill="none" rx="0" ry="0" transform="translate(221.7 488.62)"></rect><path fill="#fabaff" d="M239.86 489.56q0-4.06 1.36-7.01 1.35-2.96 3.64-4.88t5.09-2.85q2.81-.92 5.71-.92 1.52 0 3.01.2 1.5.21 2.87.64v-9.33h12.51v36.16h-7.97l-3.08-4.44q-2.02 2.66-4.73 3.93-2.72 1.26-5.6 1.26-2.43 0-4.72-.85-2.28-.86-4.11-2.52-1.83-1.65-2.9-4.02-1.08-2.36-1.08-5.37m15.45 3.87q1.36 0 2.54-.49 1.18-.5 2.12-1.16.95-.67 1.57-1.16v-7.65q-.73-.45-1.65-.45-1.18 0-2.37.72-1.18.72-2.17 1.91-.98 1.19-1.57 2.59-.6 1.39-.6 2.75 0 1.01.49 1.97.48.97 1.64.97"></path><rect width="34.19" height="36.91" x="-17.09" y="-18.45" fill="none" rx="0" ry="0" transform="translate(257.45 484.37)"></rect><path fill="#fabaff" d="M292.14 502.37q-2.6 0-5.07-.82t-4.47-2.44q-2-1.62-3.18-4-1.18-2.39-1.18-5.55 0-3.93 1.4-6.88 1.41-2.96 3.82-4.92 2.4-1.97 5.45-2.96 3.05-.99 6.34-.99 4.17 0 6.78 1.27 2.61 1.27 3.83 3.27 1.23 2 1.23 4.21 0 2.38-1.53 4.62-1.52 2.23-4.48 3.67-2.95 1.44-7.27 1.44-.41 0-1.08-.01-.68-.01-1.17-.03 0 1.35.64 1.95.65.61 1.62.76.98.15 1.97.15.88 0 2.48-.29t3.47-1.07q1.87-.77 3.54-2.21l1.34 6.68q-2.54 2.19-6.42 3.17-3.87.98-8.06.98m-.58-15.02 4.7-1.05.41-3.29q0-.13.02-.25t.02-.24q0-1.89-1.76-1.89-1.52.12-2.13 1.04-.6.91-.77 2.38-.17 1.47-.49 3.3"></path><rect width="28.85" height="28.56" x="-14.43" y="-14.28" fill="none" rx="0" ry="0" transform="translate(293.17 488.59)"></rect><path fill="#fabaff" d="M24.15 558.21q2.86 0 4.09-1.54 1.22-1.53 1.34-3.13l-2.09-.71q-.04 1.5-.91 2.62t-2.43 1.12q-1.59 0-2.58-1.24-1-1.24-1-4.05 0-2.99.98-4.15.99-1.16 2.6-1.16 1.57 0 2.44 1.04.86 1.04.9 2.76l2.09-.69q-.12-1.8-1.34-3.27-1.22-1.47-4.09-1.47-3.14 0-4.54 1.72-1.41 1.72-1.41 5.22 0 3.35 1.41 5.14 1.4 1.79 4.54 1.79"></path><rect width="11.38" height="13.87" x="-5.69" y="-6.93" fill="none" rx="0" ry="0" transform="translate(24.39 551.77)"></rect><path fill="#fabaff" d="M37.53 558.18q3.06 0 4.53-1.69 1.47-1.7 1.47-5.25T42.06 546q-1.47-1.68-4.53-1.68-3.04 0-4.52 1.68-1.47 1.69-1.47 5.24 0 3.55 1.47 5.25 1.48 1.69 4.52 1.69m0-1.59q-1.59 0-2.63-1.13-1.03-1.12-1.03-4.21t1.03-4.21q1.04-1.11 2.63-1.11 1.6 0 2.64 1.11 1.03 1.12 1.03 4.21t-1.03 4.21q-1.04 1.13-2.64 1.13"></path><rect width="11.99" height="13.86" x="-6" y="-6.93" fill="none" rx="0" ry="0" transform="translate(38.03 551.75)"></rect><path fill="#fabaff" d="M54.73 558.09h2.16v-18.05h-2.31v15.81Zm-4.47.09q2.24 0 3.78-1.12 1.54-1.12 1.54-2.33l-1-1.25q0 1.2-1.04 2.14-1.04.94-2.49.94-1.54 0-2.44-1.12-.9-1.12-.9-4.18 0-3.06.9-4.18.9-1.12 2.44-1.12 1.45 0 2.49.94 1.04.93 1.04 2.12l1-1.22q0-1.22-1.54-2.34-1.54-1.12-3.78-1.12-2.45 0-3.67 1.71-1.22 1.72-1.22 5.2 0 3.48 1.22 5.21 1.22 1.72 3.67 1.72"></path><rect width="11.52" height="18.14" x="-5.76" y="-9.07" fill="none" rx="0" ry="0" transform="translate(51.63 549.61)"></rect><path fill="#fabaff" d="M64.95 558.21v-1.54q-1.75 0-2.73-1.28-.98-1.25-.98-4.14 0-3.05 1.02-4.22 1.01-1.16 2.66-1.16 1.69 0 2.63 1.1.82 1.04.91 3.54h-7.48v1.45h9.78q.04-.34.04-.74 0-3.42-1.35-5.16-1.37-1.73-4.53-1.73-3.08 0-4.5 1.73-1.44 1.73-1.44 5.19 0 3.27 1.4 5.12 1.4 1.84 4.57 1.84m0-1.54v1.54q1.72 0 2.85-.45 1.13-.45 1.84-1.44.7-.98.9-2.38l-2.09-.56q-.2 1.01-.59 1.81-.41.81-1.16 1.14-.75.34-1.75.34"></path><rect width="11.82" height="13.88" x="-5.91" y="-6.94" fill="none" rx="0" ry="0" transform="translate(65.39 551.77)"></rect><path fill="#fabaff" d="M84.74 558.24q1.27 0 2.42-.29v-1.57q-.8.26-1.64.26-.94 0-1.46-.4-.51-.4-.51-1.65v-8.49h4.5v-1.63h-4.5v-3.09h-2.34v3.09h-3.18v1.63h3.18v9.03q0 1.79 1.01 2.45 1.01.66 2.52.66"></path><rect width="10.02" height="16.86" x="-5.01" y="-8.43" fill="none" rx="0" ry="0" transform="translate(83.54 550.31)"></rect><path fill="#fabaff" d="M95.38 558.18q3.06 0 4.52-1.69 1.47-1.7 1.47-5.25T99.9 546q-1.46-1.68-4.52-1.68-3.05 0-4.52 1.68-1.47 1.69-1.47 5.24 0 3.55 1.47 5.25 1.47 1.69 4.52 1.69m0-1.59q-1.6 0-2.63-1.13-1.04-1.12-1.04-4.21t1.04-4.21q1.03-1.11 2.63-1.11 1.6 0 2.63 1.11 1.04 1.12 1.04 4.21t-1.04 4.21q-1.03 1.13-2.63 1.13"></path><rect width="11.98" height="13.86" x="-5.99" y="-6.93" fill="none" rx="0" ry="0" transform="translate(95.88 551.75)"></rect><path fill="#fabaff" d="M108.97 563.43q1.77 0 2.99-.51 1.22-.51 2.01-1.77.79-1.26.79-3.45v-13.23h-1.74l-.6 2.78v10.67q0 2.36-.92 3.19-.92.82-2.45.82-.93 0-1.65-.3-.72-.31-1.12-.96-.41-.65-.49-1.73h-2.29q.18 2.48 1.71 3.48 1.52 1.01 3.76 1.01m-.84-5.25q2.23 0 3.77-1.1 1.55-1.1 1.55-2.35l-1.03-1.25q0 1.2-1.04 2.14-1.04.94-2.49.94-1.54 0-2.44-1.12-.89-1.12-.89-4.18 0-3.06.89-4.18.9-1.12 2.44-1.12 1.45 0 2.49.94 1.04.93 1.04 2.12l1-1.17q0-1.21-1.54-2.36t-3.77-1.15q-2.45 0-3.67 1.71-1.23 1.72-1.23 5.2 0 3.48 1.24 5.21 1.23 1.72 3.68 1.72"></path><rect width="11.55" height="19.09" x="-5.78" y="-9.54" fill="none" rx="0" ry="0" transform="translate(109.48 554.38)"></rect><path fill="#fabaff" d="M122.98 558.21v-1.54q-1.75 0-2.73-1.28-.99-1.25-.99-4.14 0-3.05 1.03-4.22 1.01-1.16 2.65-1.16 1.69 0 2.64 1.1.81 1.04.91 3.54h-7.48v1.45h9.78q.04-.34.04-.74 0-3.42-1.35-5.16-1.37-1.73-4.54-1.73-3.07 0-4.49 1.73-1.44 1.73-1.44 5.19 0 3.27 1.4 5.12 1.39 1.84 4.57 1.84m0-1.54v1.54q1.72 0 2.85-.45 1.13-.45 1.84-1.44.7-.98.9-2.38l-2.1-.56q-.19 1.01-.58 1.81-.42.81-1.16 1.14-.75.34-1.75.34"></path><rect width="11.82" height="13.88" x="-5.91" y="-6.94" fill="none" rx="0" ry="0" transform="translate(123.42 551.77)"></rect><path fill="#fabaff" d="M136.87 558.24q1.27 0 2.42-.29v-1.57q-.8.26-1.64.26-.94 0-1.46-.4t-.52-1.65v-8.49h4.51v-1.63h-4.51v-3.09h-2.33v3.09h-3.19v1.63h3.19v9.03q0 1.79 1.01 2.45 1.01.66 2.52.66"></path><rect width="10.03" height="16.86" x="-5.01" y="-8.43" fill="none" rx="0" ry="0" transform="translate(135.66 550.31)"></rect><path fill="#fabaff" d="M142.23 558.09h2.33v-18.05h-2.33Zm8.58 0h2.32v-7.86q0-2.8-1.02-4.35-1.01-1.55-3.37-1.55-2.38 0-3.86 1.48t-1.48 3.16l1.12.72q0-1.61.96-2.67.97-1.06 2.42-1.06 1.44 0 2.17.99.74.99.74 3.36Z"></path><rect width="10.9" height="18.05" x="-5.45" y="-9.03" fill="none" rx="0" ry="0" transform="translate(148.18 549.57)"></rect><path fill="#fabaff" d="M161.23 558.21v-1.54q-1.75 0-2.73-1.28-.99-1.25-.99-4.14 0-3.05 1.03-4.22 1.01-1.16 2.65-1.16 1.69 0 2.64 1.1.81 1.04.91 3.54h-7.48v1.45h9.78q.04-.34.04-.74 0-3.42-1.36-5.16-1.36-1.73-4.53-1.73-3.07 0-4.49 1.73-1.44 1.73-1.44 5.19 0 3.27 1.4 5.12 1.39 1.84 4.57 1.84m0-1.54v1.54q1.72 0 2.85-.45 1.13-.45 1.84-1.44.7-.98.9-2.38l-2.1-.56q-.19 1.01-.58 1.81-.42.81-1.16 1.14-.75.34-1.75.34"></path><rect width="11.82" height="13.88" x="-5.91" y="-6.94" fill="none" rx="0" ry="0" transform="translate(161.67 551.77)"></rect><path fill="#fabaff" d="M177.56 550.81h2.32q0-3.37-.9-4.91-.9-1.55-3.23-1.55-2.25 0-3.59 1.23-1.33 1.23-1.33 2.98l.9.65q0-1.25.85-2.24.85-1 2.33-1 1.3 0 1.98 1.02.67 1.02.67 3.82m-8.14 7.28h2.32V547.1l-.5-2.63h-1.82Z"></path><rect width="10.46" height="13.74" x="-5.23" y="-6.87" fill="none" rx="0" ry="0" transform="translate(175.15 551.72)"></rect><path fill="#fabaff" d="M193.49 563.43q1.77 0 2.99-.51 1.21-.51 2-1.77t.79-3.45v-13.23h-1.74l-.59 2.78v10.67q0 2.36-.92 3.19-.92.82-2.45.82-.94 0-1.65-.3-.72-.31-1.13-.96-.41-.65-.49-1.73h-2.29q.19 2.48 1.71 3.48 1.52 1.01 3.77 1.01m-.84-5.25q2.23 0 3.77-1.1t1.54-2.35l-1.02-1.25q0 1.2-1.05 2.14-1.04.94-2.49.94-1.54 0-2.43-1.12-.9-1.12-.9-4.18 0-3.06.9-4.18.89-1.12 2.43-1.12 1.45 0 2.49.94 1.05.93 1.05 2.12l1-1.17q0-1.21-1.55-2.36-1.54-1.15-3.77-1.15-2.45 0-3.67 1.71-1.23 1.72-1.23 5.2 0 3.48 1.24 5.21 1.24 1.72 3.69 1.72"></path><rect width="11.55" height="19.09" x="-5.78" y="-9.54" fill="none" rx="0" ry="0" transform="translate(194 554.38)"></rect><path fill="#fabaff" d="M210.06 550.81h2.32q0-3.37-.9-4.91-.91-1.55-3.23-1.55-2.25 0-3.59 1.23-1.33 1.23-1.33 2.98l.9.65q0-1.25.85-2.24.85-1 2.33-1 1.3 0 1.97 1.02.68 1.02.68 3.82m-8.15 7.28h2.33V547.1l-.5-2.63h-1.83Z"></path><rect width="10.47" height="13.74" x="-5.24" y="-6.87" fill="none" rx="0" ry="0" transform="translate(207.65 551.72)"></rect><path fill="#fabaff" d="M220.12 558.18q3.06 0 4.52-1.69 1.47-1.7 1.47-5.25t-1.47-5.24q-1.46-1.68-4.52-1.68-3.05 0-4.52 1.68-1.47 1.69-1.47 5.24 0 3.55 1.47 5.25 1.47 1.69 4.52 1.69m0-1.59q-1.6 0-2.63-1.13-1.04-1.12-1.04-4.21t1.04-4.21q1.03-1.11 2.63-1.11 1.6 0 2.63 1.11 1.04 1.12 1.04 4.21t-1.04 4.21q-1.03 1.13-2.63 1.13"></path><rect width="11.98" height="13.86" x="-5.99" y="-6.93" fill="none" rx="0" ry="0" transform="translate(220.62 551.75)"></rect><path fill="#fabaff" d="M230.62 558.09h3.16l2.54-11.3 2.58 11.3h3.14l2.84-13.62h-2.4l-2.06 12.05h-.04l-2.85-12.05h-2.38l-2.83 12.06h-.03l-2.13-12.06h-2.4Z"></path><rect width="17.12" height="13.62" x="-8.56" y="-6.81" fill="none" rx="0" ry="0" transform="translate(236.82 551.78)"></rect><path fill="#fabaff" d="M258.58 558.24q1.26 0 2.41-.29v-1.57q-.79.26-1.63.26-.95 0-1.46-.4-.52-.4-.52-1.65v-8.49h4.51v-1.63h-4.51v-3.09h-2.34v3.09h-3.18v1.63h3.18v9.03q0 1.79 1.02 2.45 1.01.66 2.52.66"></path><rect width="10.03" height="16.86" x="-5.01" y="-8.43" fill="none" rx="0" ry="0" transform="translate(257.38 550.31)"></rect><path fill="#fabaff" d="M269.21 558.18q3.06 0 4.53-1.69 1.46-1.7 1.46-5.25t-1.46-5.24q-1.47-1.68-4.53-1.68-3.04 0-4.52 1.68-1.47 1.69-1.47 5.24 0 3.55 1.47 5.25 1.48 1.69 4.52 1.69m0-1.59q-1.6 0-2.63-1.13-1.04-1.12-1.04-4.21t1.04-4.21q1.03-1.11 2.63-1.11 1.6 0 2.64 1.11 1.03 1.12 1.03 4.21t-1.03 4.21q-1.04 1.13-2.64 1.13"></path><rect width="11.98" height="13.86" x="-5.99" y="-6.93" fill="none" rx="0" ry="0" transform="translate(269.71 551.75)"></rect><path fill="#fabaff" d="M282.81 563.43q1.77 0 2.99-.51 1.21-.51 2-1.77t.79-3.45v-13.23h-1.74l-.59 2.78v10.67q0 2.36-.92 3.19-.92.82-2.45.82-.94 0-1.65-.3-.72-.31-1.13-.96-.41-.65-.49-1.73h-2.29q.19 2.48 1.71 3.48 1.52 1.01 3.77 1.01m-.84-5.25q2.23 0 3.77-1.1t1.54-2.35l-1.02-1.25q0 1.2-1.04 2.14-1.05.94-2.49.94-1.55 0-2.44-1.12-.9-1.12-.9-4.18 0-3.06.9-4.18.89-1.12 2.44-1.12 1.44 0 2.49.94 1.04.93 1.04 2.12l1-1.17q0-1.21-1.54-2.36-1.55-1.15-3.78-1.15-2.45 0-3.67 1.71-1.23 1.72-1.23 5.2 0 3.48 1.24 5.21 1.24 1.72 3.69 1.72"></path><rect width="11.55" height="19.09" x="-5.78" y="-9.54" fill="none" rx="0" ry="0" transform="translate(283.31 554.38)"></rect><path fill="#fabaff" d="M296.81 558.21v-1.54q-1.75 0-2.72-1.28-.99-1.25-.99-4.14 0-3.05 1.02-4.22 1.01-1.16 2.66-1.16 1.69 0 2.63 1.1.82 1.04.91 3.54h-7.47v1.45h9.77q.05-.34.05-.74 0-3.42-1.36-5.16-1.37-1.73-4.53-1.73-3.07 0-4.5 1.73-1.44 1.73-1.44 5.19 0 3.27 1.41 5.12 1.39 1.84 4.56 1.84m0-1.54v1.54q1.73 0 2.85-.45 1.13-.45 1.84-1.44.71-.98.9-2.38l-2.09-.56q-.2 1.01-.59 1.81-.41.81-1.16 1.14-.75.34-1.75.34"></path><rect width="11.83" height="13.88" x="-5.92" y="-6.94" fill="none" rx="0" ry="0" transform="translate(297.25 551.77)"></rect><path fill="#fabaff" d="M310.7 558.24q1.27 0 2.42-.29v-1.57q-.79.26-1.63.26-.95 0-1.46-.4-.52-.4-.52-1.65v-8.49h4.51v-1.63h-4.51v-3.09h-2.34v3.09h-3.18v1.63h3.18v9.03q0 1.79 1.02 2.45 1.01.66 2.51.66"></path><rect width="10.03" height="16.86" x="-5.01" y="-8.43" fill="none" rx="0" ry="0" transform="translate(309.5 550.31)"></rect><path fill="#fabaff" d="M316.06 558.09h2.34v-18.05h-2.34Zm8.58 0h2.33v-7.86q0-2.8-1.02-4.35-1.02-1.55-3.38-1.55-2.38 0-3.86 1.48-1.47 1.48-1.47 3.16l1.11.72q0-1.61.97-2.67.96-1.06 2.41-1.06 1.44 0 2.18.99.73.99.73 3.36Z"></path><rect width="10.91" height="18.05" x="-5.46" y="-9.03" fill="none" rx="0" ry="0" transform="translate(322.01 549.57)"></rect><path fill="#fabaff" d="M335.06 558.21v-1.54q-1.75 0-2.72-1.28-.99-1.25-.99-4.14 0-3.05 1.02-4.22 1.01-1.16 2.66-1.16 1.69 0 2.63 1.1.82 1.04.91 3.54h-7.48v1.45h9.78q.05-.34.05-.74 0-3.42-1.36-5.16-1.37-1.73-4.53-1.73-3.07 0-4.5 1.73-1.44 1.73-1.44 5.19 0 3.27 1.41 5.12 1.39 1.84 4.56 1.84m0-1.54v1.54q1.73 0 2.85-.45 1.13-.45 1.84-1.44.71-.98.9-2.38l-2.09-.56q-.2 1.01-.59 1.81-.41.81-1.16 1.14-.75.34-1.75.34"></path><rect width="11.83" height="13.88" x="-5.92" y="-6.94" fill="none" rx="0" ry="0" transform="translate(335.5 551.77)"></rect><path fill="#fabaff" d="M351.39 550.81h2.32q0-3.37-.9-4.91-.9-1.55-3.22-1.55-2.26 0-3.59 1.23-1.34 1.23-1.34 2.98l.9.65q0-1.25.85-2.24.85-1 2.34-1 1.3 0 1.97 1.02.67 1.02.67 3.82m-8.14 7.28h2.32V547.1l-.49-2.63h-1.83Z"></path><rect width="10.46" height="13.74" x="-5.23" y="-6.87" fill="none" rx="0" ry="0" transform="translate(348.98 551.72)"></rect><path fill="#a75954" d="M136.253 29.505a16.93 16.93 0 0 0 1.46-6.856A17.094 17.094 0 0 0 120.64 5.576a17.094 17.094 0 0 0-17.073 17.073A17.094 17.094 0 0 0 120.64 39.72c2.02 0 3.931-.414 5.73-1.06l130.921 140.27-73.65 147.299c-.322-.016-.63-.097-.958-.097a17.094 17.094 0 0 0-17.073 17.072 17.094 17.094 0 0 0 17.073 17.073 17.094 17.094 0 0 0 17.073-17.073 16.911 16.911 0 0 0-4.077-10.938l75.744-151.5a6.743 6.743 0 0 0-1.099-7.604z"></path><path fill="#a75954" d="M230.072 180.767a6.732 6.732 0 0 0-1.26-7.766L84.77 28.961a16.857 16.857 0 0 0 1.239-6.312A17.094 17.094 0 0 0 68.937 5.576a17.094 17.094 0 0 0-17.073 17.073A17.094 17.094 0 0 0 68.937 39.72c2.235 0 4.352-.458 6.307-1.238l79.008 79.008c-.156.129-.35.183-.496.328l-71.21 71.215-35.987-35.987a16.965 16.965 0 0 0 1.24-6.312 17.089 17.089 0 0 0-17.068-17.073 17.094 17.094 0 0 0-17.073 17.073 17.094 17.094 0 0 0 17.073 17.073c2.23 0 4.351-.458 6.307-1.239l35.992 35.987-38.18 38.18c-.473.473-.764 1.039-1.065 1.6a6.603 6.603 0 0 0-2.596 5.18v32.411a16.125 16.125 0 0 0-5.343 3.501 17.1 17.1 0 0 0 0 24.144 16.965 16.965 0 0 0 12.075 5.003c4.561 0 8.848-1.777 12.07-5.003a16.965 16.965 0 0 0 5.002-12.07c0-4.556-1.777-8.848-5.003-12.074a16.103 16.103 0 0 0-5.337-3.5v-29.956l118.636-118.636c.145-.146.2-.34.329-.496l14.719 14.725L64.18 255.72c-.043.043-.053.102-.097.146a6.71 6.71 0 0 0-1.874 4.62v56.809a16.125 16.125 0 0 0-5.342 3.5 17.089 17.089 0 0 0 0 24.145 16.96 16.96 0 0 0 12.074 4.998c4.562 0 8.85-1.772 12.07-4.998a17.089 17.089 0 0 0 0-24.144 16.103 16.103 0 0 0-5.337-3.501v-54.03l112.184-112.184 28 28-73.574 147.149c-.329-.016-.636-.097-.964-.097a17.094 17.094 0 0 0-17.073 17.072 17.094 17.094 0 0 0 17.073 17.073 17.094 17.094 0 0 0 17.072-17.073 16.911 16.911 0 0 0-4.076-10.938zm107.725 135.025a16.857 16.857 0 0 0-3.997.523l-20.293-27.053V177.757a6.75 6.75 0 0 0-1.772-4.551l-44.206-48.224 32.928-32.928a16.857 16.857 0 0 0 6.313 1.244 17.089 17.089 0 0 0 17.067-17.072 17.089 17.089 0 0 0-17.067-17.073 17.094 17.094 0 0 0-17.073 17.073c0 2.235.458 4.351 1.239 6.306l-32.52 32.514-16.512-18.016 58.553-58.553c1.955.781 4.077 1.239 6.313 1.239a17.089 17.089 0 0 0 17.067-17.073A17.089 17.089 0 0 0 306.77 5.571a17.094 17.094 0 0 0-17.073 17.072c0 2.235.458 4.357 1.239 6.312L232.802 87.1l-33.041-36.046V38.32a17.094 17.094 0 0 0 10.34-15.678A17.094 17.094 0 0 0 193.03 5.571a17.094 17.094 0 0 0-17.073 17.072c0 7.023 4.266 13.06 10.34 15.678v15.35c0 .328.14.613.19.926.075.511.112 1.017.306 1.502.178.463.474.84.749 1.244.188.286.285.614.528.873l111.98 122.158v111.129c0 1.46.468 2.876 1.346 4.039l21.655 28.878a16.868 16.868 0 0 0-2.326 8.445 17.094 17.094 0 0 0 17.073 17.073 17.094 17.094 0 0 0 17.072-17.073 17.094 17.094 0 0 0-17.072-17.073"></path></svg></svg>